<?xml version="1.0" encoding="UTF-8" standalone="no"?>
<!-- Created with Inkscape (http://www.inkscape.org/) -->

<svg
   version="1.1"
   id="svg1"
   width="535.74664"
   height="679.01331"
   viewBox="0 0 535.74664 679.01331"
   sodipodi:docname="dear-daniel-vector.eps"
   xmlns:inkscape="http://www.inkscape.org/namespaces/inkscape"
   xmlns:sodipodi="http://sodipodi.sourceforge.net/DTD/sodipodi-0.dtd"
   xmlns="http://www.w3.org/2000/svg"
   xmlns:svg="http://www.w3.org/2000/svg">
  <defs
     id="defs1" />
  <sodipodi:namedview
     id="namedview1"
     pagecolor="#ffffff"
     bordercolor="#000000"
     borderopacity="0.25"
     inkscape:showpageshadow="2"
     inkscape:pageopacity="0.0"
     inkscape:pagecheckerboard="0"
     inkscape:deskcolor="#d1d1d1">
    <inkscape:page
       x="0"
       y="0"
       inkscape:label="1"
       id="page1"
       width="535.74664"
       height="679.01331"
       margin="0"
       bleed="0" />
  </sodipodi:namedview>
  <g
     id="g1"
     inkscape:groupmode="layer"
     inkscape:label="1">
    <g
       id="group-R5">
      <path
         id="path2"
         d="m 1470.9,4600.69 c 0,0 541.58,206.5 1161.09,0 370.14,148.06 564.95,280.53 689.63,171.44 124.68,-109.1 175.33,-342.88 148.06,-798.74 74.03,-257.15 210.4,-829.9 -46.76,-1250.69 -257.15,-420.8 -818.54,-528.59 -1413.85,-533.79 -595.31,-5.19 -1113.367,130.14 -1348.586,514.31 -235.218,384.16 -275.336,914.32 -46.754,1288.36 -41.562,431.18 36.364,877.95 254.555,841.59 218.185,-36.37 602.615,-232.48 602.615,-232.48"
         style="fill:#ffffff;fill-opacity:1;fill-rule:nonzero;stroke:none"
         transform="matrix(0.13333333,0,0,-0.13333333,0,679.01333)" />
      <path
         id="path3"
         d="m 2702.12,4679.91 c 0,0 394.82,215.6 555.86,194.82 161.05,-20.78 342.87,-272.74 264.95,-903.93 103.9,-231.18 116.89,-475.35 116.89,-475.35 0,0 268.19,2.6 332.47,-20.78 64.29,-23.37 50.66,-75.97 21.43,-72.08 -29.22,3.9 -280.53,17.13 -350.66,-0.2 3.9,-106.94 -13.63,-272.53 -13.63,-272.53 0,0 216.24,-38.97 257.15,-85.72 40.91,-46.76 -7.8,-74.03 -60.39,-50.65 -52.6,23.38 -220.14,38.96 -220.14,38.96 0,0 -29.22,-155.85 -77.93,-245.46 155.85,-54.55 263,-122.74 317.55,-165.59 54.54,-42.86 37.01,-103.25 -15.59,-89.62 -52.6,13.64 -233.77,132.47 -344.82,163.64 -62.34,-109.09 -318.19,-350.66 -567.55,-423.39 -5.19,-18.18 -5.19,-18.18 -5.19,-18.18 0,0 296.11,-85.72 522.09,-371.44 225.99,-285.73 225.99,-519.5 127.28,-667.56 -98.7,-148.06 -298.71,-163.64 -402.61,-137.67 12.99,-192.211 25.97,-457.16 -2.6,-670.149 C 3128.11,194.031 2964.47,53.7695 2751.47,25.1992 2538.48,-3.37891 2187.81,-47.5313 2047.55,152.469 1980.01,51.1719 1808.58,0.878906 1678.7,0.0507813 1548.83,-0.78125 1229.34,7.01172 1099.46,105.719 969.586,204.422 920.234,381.051 915.039,586.262 c -5.195,205.199 10.391,490.918 10.391,490.918 0,0 -197.41,-41.56 -327.285,75.33 -129.875,116.89 -202.606,316.9 -77.926,566.26 124.679,249.36 449.367,454.56 623.401,532.48 -223.386,77.93 -464.952,280.53 -550.671,431.19 -155.851,-28.58 -327.285,-116.89 -363.648,-142.87 -36.367,-25.97 -79.227,-5.84 -69.485,35.07 9.743,40.91 235.723,167.54 377.938,200.66 -54.551,91.56 -77.926,179.23 -77.926,179.23 0,0 -97.406,-17.54 -165.594,-37.02 -68.183,-19.48 -93.507,-9.74 -95.457,17.53 -1.949,27.28 48.703,79.88 235.723,105.2 -23.375,112.99 -37.012,224.04 -37.012,224.04 0,0 -131.386,3.89 -239.078,-7.8 C 50.7227,3244.8 3.96484,3237 0.0703125,3277.91 -3.82813,3318.82 155.922,3363.63 385.797,3365.58 c -5.844,185.07 89.613,477.29 167.539,631.19 -38.961,210.4 -33.117,414.95 27.273,617.56 60.395,202.6 183.125,268.84 253.258,272.73 70.133,3.9 239.623,-29.22 563.003,-202.6 -35.06,130.52 -23.37,284.43 13.64,286.38 37.02,1.94 11.69,-157.8 66.24,-286.38 54.55,-128.58 112.99,-188.97 62.34,-216.24 -50.65,-27.27 -103.25,79.87 -103.25,79.87 0,0 -155.85,74.03 -333.13,159.75 -177.28,85.71 -253.257,109.09 -338.976,13.63 -85.718,-95.45 -151.953,-391.57 -114.937,-582.49 33.117,44.81 87.664,58.45 93.508,7.8 5.843,-50.65 -103.25,-229.88 -163.641,-372.09 -60.394,-142.22 -72.082,-335.08 -64.289,-414.95 85.719,3.89 173.383,-23.38 185.07,-58.45 11.692,-35.06 -87.664,-48.7 -183.121,-38.96 1.946,-122.73 33.117,-204.55 33.117,-204.55 0,0 104.547,22.07 130.524,-10.39 25.976,-32.47 -16.883,-62.34 -110.395,-66.24 29.871,-97.41 80.524,-168.84 80.524,-168.84 0,0 88.316,33.77 140.265,28.57 51.95,-5.19 49.352,-61.04 22.079,-79.22 -27.274,-18.18 -74.028,-23.38 -110.395,-41.56 33.77,-46.75 174.031,-229.88 459.757,-346.76 285.73,-116.89 649.38,-129.88 1020.82,-122.09 371.44,7.79 896.14,98.71 1176.66,480.54 -77.92,38.96 -148.7,33.77 -148.7,74.68 0,40.91 99.35,66.23 208.45,23.38 56.49,109.09 72.08,212.34 72.08,212.34 0,0 -72.08,10.39 -118.84,7.79 -46.75,-2.59 -49.35,46.76 -12.99,71.43 36.37,24.68 120.79,19.49 158.45,22.08 7.79,83.12 18.18,180.53 15.59,253.26 -103.9,3.9 -218.19,-59.74 -248.06,-32.47 -29.87,27.27 -6.5,100 242.86,131.17 -12.99,146.76 -51.95,314.3 -96.1,414.31 -44.16,100 -107.8,149.35 -105.2,210.39 2.59,61.05 55.84,51.95 105.2,14.29 14.28,63.64 23.37,244.17 -20.78,388.33 -44.16,144.16 -122.09,250.66 -192.22,251.95 -70.13,1.3 -436.38,-157.15 -562.36,-232.47 -11.69,-50.66 -14.28,-103.9 -48.05,-96.11 -33.77,7.79 -50.65,89.61 -15.59,203.9 35.07,114.29 164.94,288.32 216.89,285.73 51.95,-2.6 -72.73,-132.47 -107.79,-255.86"
         style="fill:#231f20;fill-opacity:1;fill-rule:nonzero;stroke:none"
         transform="matrix(0.13333333,0,0,-0.13333333,0,679.01333)" />
      <path
         id="path4"
         d="m 1587.79,4764.33 c -16.42,147.78 15.59,325.34 58.44,317.55 42.86,-7.79 5.63,-158.61 19.49,-292.22 13.86,-133.61 91.56,-270.79 62.34,-303.91 -29.23,-33.12 -58.45,-7.79 -83.77,40.91 -25.33,48.7 -44.81,132.47 -56.5,237.67"
         style="fill:#231f20;fill-opacity:1;fill-rule:nonzero;stroke:none"
         transform="matrix(0.13333333,0,0,-0.13333333,0,679.01333)" />
      <path
         id="path5"
         d="m 1776.76,4785.76 c -4.4,124.62 19.48,298.06 64.29,305.86 44.8,7.79 27.27,-105.2 25.32,-225.98 -1.95,-120.79 23.38,-251.31 46.76,-303.91 23.38,-52.6 7.79,-90.39 -19.48,-90.98 -27.28,-0.58 -59.72,5.5 -85.81,105.18 -18.05,68.96 -28.66,141.33 -31.08,209.83"
         style="fill:#231f20;fill-opacity:1;fill-rule:nonzero;stroke:none"
         transform="matrix(0.13333333,0,0,-0.13333333,0,679.01333)" />
      <path
         id="path6"
         d="m 1991.05,4781.36 c 4.5,93.99 33.12,324.66 85.72,310.64 52.6,-14.02 -5.84,-167.92 0,-296.5 5.84,-128.57 31.17,-202.6 37.01,-270.79 5.85,-68.18 -50.65,-64.28 -72.08,-38.96 -21.43,25.32 -54.93,206.14 -50.65,295.61"
         style="fill:#231f20;fill-opacity:1;fill-rule:nonzero;stroke:none"
         transform="matrix(0.13333333,0,0,-0.13333333,0,679.01333)" />
      <path
         id="path7"
         d="m 2211.19,4820.83 c 11.28,87.02 75.98,269.6 116.89,271.17 40.91,1.57 -13.64,-136.75 -21.43,-280.91 -7.79,-144.16 9.74,-225.98 13.64,-282.48 3.89,-56.5 -38.97,-76.75 -74.03,-57.86 -35.07,18.9 -48.71,244.88 -35.07,350.08"
         style="fill:#231f20;fill-opacity:1;fill-rule:nonzero;stroke:none"
         transform="matrix(0.13333333,0,0,-0.13333333,0,679.01333)" />
      <path
         id="path8"
         d="m 2441.07,4781.36 c 31.9,97.07 109.09,238.18 153.9,234.28 44.81,-3.89 -1.95,-99.74 -40.91,-180.39 -38.96,-80.66 -60.39,-187.8 -68.18,-259.89 -7.8,-72.07 -21.43,-121.67 -58.45,-111.48 -37.01,10.18 -42.86,145.54 13.64,317.48"
         style="fill:#231f20;fill-opacity:1;fill-rule:nonzero;stroke:none"
         transform="matrix(0.13333333,0,0,-0.13333333,0,679.01333)" />
      <path
         id="path9"
         d="m 1221.54,3344.15 c 66.24,0 105.2,-79.87 105.2,-175.33 0,-95.46 -68.18,-126.63 -112.99,-126.63 -44.81,0 -103.25,18.51 -103.25,136.37 0,117.86 64.29,165.59 111.04,165.59"
         style="fill:#231f20;fill-opacity:1;fill-rule:nonzero;stroke:none"
         transform="matrix(0.13333333,0,0,-0.13333333,0,679.01333)" />
      <path
         id="path10"
         d="m 2842.38,3344.15 c 66.24,0 105.2,-79.87 105.2,-175.33 0,-95.46 -68.18,-126.63 -112.99,-126.63 -44.81,0 -103.25,18.51 -103.25,136.37 0,117.86 64.29,165.59 111.04,165.59"
         style="fill:#231f20;fill-opacity:1;fill-rule:nonzero;stroke:none"
         transform="matrix(0.13333333,0,0,-0.13333333,0,679.01333)" />
      <path
         id="path11"
         d="m 2230.67,2936.04 c 0,-87.71 -72.27,-135.42 -183.12,-135.42 -110.86,0 -167.54,77.03 -167.54,136.37 0,59.34 37.16,148.06 174.03,148.06 136.87,0 176.63,-87.09 176.63,-149.01"
         style="fill:#231f20;fill-opacity:1;fill-rule:nonzero;stroke:none"
         transform="matrix(0.13333333,0,0,-0.13333333,0,679.01333)" />
      <path
         id="path12"
         d="m 2169.83,2938.4 c 0,-57.28 -47.19,-88.42 -119.58,-88.42 -72.38,0 -109.4,50.29 -109.4,89.04 0,38.75 24.27,96.68 113.64,96.68 89.38,0 115.34,-56.87 115.34,-97.3"
         style="fill:#f5e418;fill-opacity:1;fill-rule:nonzero;stroke:none"
         transform="matrix(0.13333333,0,0,-0.13333333,0,679.01333)" />
      <path
         id="path13"
         d="m 1190.37,2161.64 c 0,0 -296.112,-149.36 -420.792,-289.62 158.449,-145.46 233.772,-236.37 233.772,-236.37 0,0 90.92,366.24 187.02,525.99"
         style="fill:#48c0ef;fill-opacity:1;fill-rule:nonzero;stroke:none"
         transform="matrix(0.13333333,0,0,-0.13333333,0,679.01333)" />
      <path
         id="path14"
         d="m 715.031,1775.91 257.153,-254.55 c 0,0 -28.575,-184.43 -36.364,-311.7 -145.461,-77.93 -322.09,15.58 -355.859,137.66 -33.766,122.09 23.379,337.68 135.07,428.59"
         style="fill:#ffffff;fill-opacity:1;fill-rule:nonzero;stroke:none"
         transform="matrix(0.13333333,0,0,-0.13333333,0,679.01333)" />
      <path
         id="path15"
         d="m 2861.86,2173.33 c 0,0 289.63,-124.68 424.7,-298.71 -98.71,-77.93 -225.99,-210.4 -225.99,-210.4 0,0 -88.31,301.31 -198.71,509.11"
         style="fill:#48c0ef;fill-opacity:1;fill-rule:nonzero;stroke:none"
         transform="matrix(0.13333333,0,0,-0.13333333,0,679.01333)" />
      <path
         id="path16"
         d="m 3086.55,1539.54 264.94,254.55 c 0,0 161.05,-184.42 171.44,-350.66 10.39,-166.24 -166.24,-324.69 -368.85,-270.14 -31.17,202.61 -67.53,366.25 -67.53,366.25"
         style="fill:#ffffff;fill-opacity:1;fill-rule:nonzero;stroke:none"
         transform="matrix(0.13333333,0,0,-0.13333333,0,679.01333)" />
      <path
         id="path17"
         d="m 1676.11,2136.96 c 0,0 475.34,-28.57 727.3,10.39 -70.14,-124.68 -418.2,-418.19 -727.3,-10.39"
         style="fill:#48c0ef;fill-opacity:1;fill-rule:nonzero;stroke:none"
         transform="matrix(0.13333333,0,0,-0.13333333,0,679.01333)" />
      <path
         id="path18"
         d="m 1315.05,2199.3 c 0,0 129.88,-31.17 257.16,-49.35 49.35,-171.43 238.97,-301.31 464.95,-301.31 225.98,0 431.18,148.06 477.94,314.3 106.5,12.99 192.21,36.36 192.21,36.36 0,0 174.04,-275.33 270.14,-688.33 96.11,-413.01 77.93,-724.708 77.93,-724.708 0,0 -597.43,-49.352 -963.67,-36.364 -12.99,72.731 -32.47,87.012 -50.01,87.012 -17.53,0 -38.96,-42.851 -44.8,-89.609 -79.88,-1.949 -681.85,7.789 -974.07,35.07 -7.79,284.419 62.34,936.399 292.22,1416.929"
         style="fill:#218fd3;fill-opacity:1;fill-rule:nonzero;stroke:none"
         transform="matrix(0.13333333,0,0,-0.13333333,0,679.01333)" />
      <path
         id="path19"
         d="m 1642.34,1770.07 c 0,-95.76 -77.63,-173.39 -173.38,-173.39 -95.76,0 -173.39,77.63 -173.39,173.39 0,95.75 77.63,173.38 173.39,173.38 95.75,0 173.38,-77.63 173.38,-173.38"
         style="fill:#231f20;fill-opacity:1;fill-rule:nonzero;stroke:none"
         transform="matrix(0.13333333,0,0,-0.13333333,0,679.01333)" />
      <path
         id="path20"
         d="m 1570.26,1772.01 c 0,-58.1 -47.1,-105.19 -105.2,-105.19 -58.1,0 -105.2,47.09 -105.2,105.19 0,58.1 47.1,105.2 105.2,105.2 58.1,0 105.2,-47.1 105.2,-105.2"
         style="fill:#ffffff;fill-opacity:1;fill-rule:nonzero;stroke:none"
         transform="matrix(0.13333333,0,0,-0.13333333,0,679.01333)" />
      <path
         id="path21"
         d="m 2795.63,1754.48 c 0,-95.76 -77.63,-173.38 -173.39,-173.38 -95.75,0 -173.38,77.62 -173.38,173.38 0,95.76 77.63,173.38 173.38,173.38 95.76,0 173.39,-77.62 173.39,-173.38"
         style="fill:#231f20;fill-opacity:1;fill-rule:nonzero;stroke:none"
         transform="matrix(0.13333333,0,0,-0.13333333,0,679.01333)" />
      <path
         id="path22"
         d="m 2723.55,1756.43 c 0,-58.1 -47.1,-105.2 -105.2,-105.2 -58.1,0 -105.2,47.1 -105.2,105.2 0,58.1 47.1,105.2 105.2,105.2 58.1,0 105.2,-47.1 105.2,-105.2"
         style="fill:#ffffff;fill-opacity:1;fill-rule:nonzero;stroke:none"
         transform="matrix(0.13333333,0,0,-0.13333333,0,679.01333)" />
      <path
         id="path23"
         d="m 1018.94,669.379 c 0,0 650.67,-38.969 962.37,-23.379 0,-241.57 3.9,-329.879 1.3,-387.031 -2.6,-57.141 -101.3,-155.848 -405.21,-145.457 -303.91,10.386 -457.16,57.148 -514.3,225.976 -57.15,168.84 -44.16,329.891 -44.16,329.891"
         style="fill:#ffffff;fill-opacity:1;fill-rule:nonzero;stroke:none"
         transform="matrix(0.13333333,0,0,-0.13333333,0,679.01333)" />
      <path
         id="path24"
         d="m 2096.9,643.398 c 0,0 600.02,5.204 958.48,28.571 5.19,-194.809 -25.98,-451.957 -236.37,-519.5 -210.4,-67.5276 -571.45,-51.949 -654.57,15.59 -83.12,67.531 -70.14,140.261 -67.54,475.339"
         style="fill:#ffffff;fill-opacity:1;fill-rule:nonzero;stroke:none"
         transform="matrix(0.13333333,0,0,-0.13333333,0,679.01333)" />
    </g>
  </g>
</svg>
